<svg xmlns="http://www.w3.org/2000/svg" viewBox="0 0 100 200" fill="none">
  <defs>
    <linearGradient id="goldGrad" x1="0%" y1="0%" x2="100%" y2="100%">
      <stop offset="0%" style="stop-color:#D4AF37;stop-opacity:1" />
      <stop offset="50%" style="stop-color:#FFD700;stop-opacity:1" />
      <stop offset="100%" style="stop-color:#B8860B;stop-opacity:1" />
    </linearGradient>
  </defs>
  <!-- 左侧麦穗 -->
  <path d="M80 20 Q40 40 30 80 Q25 100 30 120 Q35 140 50 160 Q60 175 80 190" 
        stroke="url(#goldGrad)" stroke-width="3" fill="none" stroke-linecap="round"/>
  <!-- 麦粒 -->
  <ellipse cx="45" cy="50" rx="8" ry="12" fill="url(#goldGrad)" transform="rotate(-30 45 50)"/>
  <ellipse cx="38" cy="70" rx="8" ry="12" fill="url(#goldGrad)" transform="rotate(-25 38 70)"/>
  <ellipse cx="35" cy="95" rx="8" ry="12" fill="url(#goldGrad)" transform="rotate(-20 35 95)"/>
  <ellipse cx="38" cy="120" rx="8" ry="12" fill="url(#goldGrad)" transform="rotate(-15 38 120)"/>
  <ellipse cx="48" cy="145" rx="8" ry="12" fill="url(#goldGrad)" transform="rotate(-10 48 145)"/>
  <ellipse cx="62" cy="168" rx="8" ry="12" fill="url(#goldGrad)" transform="rotate(-5 62 168)"/>
</svg>
